# xmcd CD database file
#
# Track frame offsets:
#	150
#	31030
#	52213
#	76050
#	108293
#	134358
#	162813
#	178580
#
# Disc length: 3016 seconds
#
# Revision: 0
# Processed by: cddbd v1.5PL3 Copyright (c) Steve Scherf et al.
# Submitted via: CDex 1.50
#
DISCID=5b0bc608
DTITLE=Richie Beirach, George Coleman - COnvergence
DYEAR=1900
DGENRE=Jazz
TTITLE0=I Wish I Knew
TTITLE1=Flamenco Sketches
TTITLE2=Rectilinear
TTITLE3=For B.C.
TTITLE4=Riddles
TTITLE5=Zal
TTITLE6=What is this thing Called Love?
TTITLE7=Infant Eyes
EXTD=
EXTT0=
EXTT1=
EXTT2=
EXTT3=
EXTT4=
EXTT5=
EXTT6=
EXTT7=
PLAYORDER=
